<?xml version="1.0" standalone="no"?>
<!DOCTYPE svg PUBLIC "-//W3C//DTD SVG 20010904//EN"
 "http://www.w3.org/TR/2001/REC-SVG-20010904/DTD/svg10.dtd">
<svg version="1.0" xmlns="http://www.w3.org/2000/svg"
 width="252.000000pt" height="296.000000pt" viewBox="0 0 252.000000 296.000000"
 preserveAspectRatio="xMidYMid meet">

<g transform="translate(0.000000,296.000000) scale(0.100000,-0.100000)"
fill="#000000" stroke="none">
<path d="M0 1480 l0 -1480 1260 0 1260 0 0 1480 0 1480 -1260 0 -1260 0 0
-1480z m1295 1150 c-3 -5 4 -11 15 -15 11 -4 20 -12 19 -18 -3 -25 1 -37 14
-37 23 0 67 -25 63 -35 -2 -5 1 -18 5 -27 6 -10 5 -19 -1 -23 -6 -3 -13 1 -16
9 -3 9 -10 13 -15 10 -5 -3 -9 0 -9 6 0 6 -5 8 -12 4 -7 -4 -8 -3 -4 5 4 6 0
14 -8 17 -9 3 -16 10 -16 15 0 4 -11 25 -25 45 -25 37 -34 71 -15 59 6 -4 8
-10 5 -15z m-41 -122 c-3 -5 -10 -6 -15 -3 -5 4 -9 1 -9 -6 0 -7 -3 -10 -6 -7
-3 4 0 16 6 28 9 18 14 20 20 9 5 -7 6 -17 4 -21z m2 -37 c12 10 13 9 8 -5 -7
-18 -26 -17 -30 2 -1 7 0 8 3 2 3 -8 9 -7 19 1z m67 -21 c4 -15 0 -20 -16 -20
-18 0 -19 2 -7 10 13 8 12 10 -3 10 -10 0 -15 5 -12 10 10 17 32 11 38 -10z
m87 -1 c0 -14 -17 -10 -23 5 -4 10 -1 13 9 9 7 -3 14 -9 14 -14z m-305 -9 c3
-5 1 -10 -4 -10 -6 0 -11 5 -11 10 0 6 2 10 4 10 3 0 8 -4 11 -10z m222 -46
c-9 -9 -28 6 -21 18 4 6 10 6 17 -1 6 -6 8 -13 4 -17z m457 -61 l-14 -38 4 60
c6 75 6 76 16 43 5 -17 3 -40 -6 -65z m-527 52 c0 -8 -4 -15 -9 -15 -4 0 -8 7
-8 15 0 8 4 15 8 15 5 0 9 -7 9 -15z m70 -42 c0 -18 -4 -33 -8 -33 -7 0 -23
31 -21 41 1 4 -9 4 -21 1 -19 -5 -20 -4 -8 11 7 9 23 16 35 15 19 -2 23 -8 23
-35z m-141 6 c5 -8 9 -8 14 1 5 8 9 7 13 -4 5 -12 0 -16 -20 -16 -14 0 -23 -3
-19 -7 12 -13 35 -11 47 3 13 16 33 19 24 4 -9 -14 8 -12 24 3 8 7 11 7 8 1
-4 -7 6 -17 23 -24 30 -12 44 -35 15 -24 -8 4 -15 1 -15 -5 0 -6 7 -11 16 -11
13 0 15 -7 11 -29 -4 -20 -2 -31 7 -34 8 -3 14 -17 14 -31 0 -21 -4 -25 -19
-21 -11 4 -19 2 -19 -4 0 -11 39 -41 55 -41 5 0 4 4 -3 8 -9 6 -6 12 12 20 21
10 26 8 31 -8 4 -11 3 -24 0 -30 -3 -5 -1 -10 6 -10 17 0 3 60 -18 75 -19 14
-25 40 -27 118 0 40 4 61 14 67 25 15 31 -1 8 -20 -14 -12 -18 -19 -9 -20 7 0
11 -6 8 -14 -4 -10 -1 -13 7 -10 7 3 20 -6 29 -20 12 -18 13 -26 4 -29 -9 -3
-7 -13 7 -38 11 -19 24 -37 30 -41 6 -4 11 -12 11 -18 0 -6 6 -15 14 -19 9 -6
12 -19 8 -40 -4 -18 -2 -31 3 -31 6 0 10 -13 10 -29 0 -46 17 -81 39 -81 11 0
21 -6 24 -12 3 -7 5 -4 6 7 2 42 13 95 20 91 4 -3 4 -31 0 -63 -3 -32 -4 -60
-2 -63 6 -7 23 22 30 53 3 16 12 27 22 27 14 0 14 2 1 10 -8 5 -12 11 -9 14 2
3 11 1 18 -4 12 -7 12 -12 -2 -34 -18 -26 -20 -83 -4 -93 5 -3 6 9 4 26 -5 29
-4 30 16 19 14 -7 17 -13 9 -16 -6 -2 -12 -17 -12 -33 0 -17 -8 -36 -20 -46
-24 -21 -26 -43 -4 -43 22 0 12 -23 -16 -37 -19 -9 -26 -8 -43 8 -23 21 -33
24 -42 10 -3 -5 16 -19 42 -31 155 -71 213 -105 194 -112 -5 -1 -2 -10 7 -18
14 -13 15 -12 9 3 -9 23 6 22 28 -3 12 -13 14 -20 5 -20 -7 0 -10 -7 -6 -16 5
-12 1 -14 -17 -8 -12 4 -29 15 -38 25 -9 10 -20 15 -24 11 -5 -4 -5 1 -2 11 4
10 3 16 -1 13 -4 -2 -28 5 -52 17 -25 11 -54 22 -65 23 -11 0 -38 10 -60 20
-45 22 -105 30 -105 14 0 -5 6 -10 14 -10 8 0 16 -7 20 -15 8 -22 -132 -84
-198 -88 -28 -2 -61 -9 -74 -16 -20 -11 -27 -10 -43 5 -17 16 -18 19 -4 26 22
13 19 38 -5 38 -13 0 -18 5 -13 15 3 9 2 15 -3 14 -20 -3 -35 2 -30 10 3 4 20
8 39 8 18 -1 38 2 45 7 7 4 16 5 20 2 4 -2 14 0 22 5 13 8 13 10 1 18 -8 5
-20 7 -28 4 -7 -3 -13 0 -13 7 0 9 -3 10 -13 2 -10 -9 -19 -7 -35 4 -20 14
-22 14 -22 0 0 -25 -24 -18 -37 11 -14 29 -8 47 7 23 7 -11 10 -11 10 -2 0 8
11 11 35 9 19 -3 35 -3 35 -1 0 20 -17 34 -41 34 -18 0 -29 5 -29 14 0 8 -6
17 -12 19 -10 4 -9 8 2 16 8 6 10 11 4 11 -6 0 -11 19 -11 43 -1 35 0 37 6 13
3 -16 13 -31 21 -33 13 -4 13 -3 0 6 -10 7 -11 11 -2 11 21 0 13 40 -10 49
l-21 8 22 15 c26 18 25 46 -4 70 -20 18 -20 18 0 33 11 9 26 13 33 10 8 -3 12
0 10 7 -5 14 15 38 31 38 6 0 11 5 11 10 0 13 -13 13 -27 -1 -6 -6 -16 -8 -23
-4 -7 4 -2 15 16 30 15 13 31 22 36 19 4 -3 8 0 8 5 0 19 -39 12 -50 -9 -11
-20 -30 -19 -30 1 0 6 5 7 12 3 8 -5 9 -2 5 10 -4 9 -3 15 1 13 4 -3 13 1 20
9 11 12 10 15 -2 20 -9 3 -14 18 -14 35 1 23 4 27 15 18 9 -8 13 -8 13 -1 0 6
-4 13 -9 16 -11 7 -11 56 0 56 4 0 11 -5 15 -11z m621 -51 c-3 -8 -6 -5 -6 6
-1 11 2 17 5 13 3 -3 4 -12 1 -19z m1 -51 c-1 -19 2 -40 7 -48 5 -10 5 -11 -3
-4 -14 14 -21 85 -7 85 2 0 4 -15 3 -33z m-58 -22 c-6 -15 -13 -26 -16 -23 -2
3 0 18 6 33 6 15 13 26 16 23 2 -3 0 -18 -6 -33z m318 -22 c-5 -21 -14 -42
-19 -47 -8 -9 8 60 18 77 10 17 11 5 1 -30z m-497 3 c43 -18 56 -42 28 -49
-10 -3 -19 -2 -19 2 0 12 -63 40 -97 43 -7 1 -14 7 -17 13 -6 16 58 11 105 -9z
m-743 -74 c8 8 12 8 12 1 0 -6 9 -13 20 -16 15 -4 20 -14 20 -37 l0 -32 -47
35 c-46 34 -92 96 -93 126 0 8 17 -9 38 -37 30 -39 42 -48 50 -40z m162 84 c0
-2 -16 -13 -35 -25 -19 -11 -35 -17 -35 -12 0 4 15 15 33 24 37 18 37 18 37
13z m830 -73 c0 -7 5 -13 11 -13 6 0 8 -7 5 -17 -4 -10 -4 -14 0 -10 6 5 44
-53 44 -68 0 -15 -51 -2 -60 15 -6 11 -9 20 -6 20 3 0 -1 21 -9 48 -19 62 -19
82 0 56 8 -10 15 -25 15 -31z m-289 20 c13 -15 12 -15 -7 -5 -12 6 -25 8 -29
4 -5 -4 -5 -1 -1 6 10 16 21 15 37 -5z m136 -59 c-12 -11 -34 -23 -49 -26 -23
-4 -25 -2 -19 15 9 24 73 57 83 43 4 -6 -3 -20 -15 -32z m-641 11 c-22 -16
-46 -20 -46 -7 0 15 13 22 39 22 25 -1 25 -1 7 -15z m-381 -85 c3 -5 4 -10 1
-10 -2 0 -12 -3 -20 -6 -12 -5 -15 -2 -10 10 7 18 20 21 29 6z m1363 -20 c-5
-17 -15 -33 -21 -37 -5 -3 -7 -1 -3 5 3 6 2 13 -4 17 -21 13 -7 30 37 44 1 1
-3 -13 -9 -29z m-1503 -8 c-2 -10 -4 -26 -5 -37 -1 -19 -2 -19 -12 3 -6 12
-15 22 -21 22 -5 0 -5 6 2 13 6 8 8 16 5 20 -3 3 3 3 14 0 12 -3 19 -12 17
-21z m338 -3 c-6 -20 -28 -26 -37 -10 -11 17 5 39 23 34 13 -3 17 -11 14 -24z
m277 9 c0 -19 -2 -20 -10 -8 -13 19 -13 30 0 30 6 0 10 -10 10 -22z m-223 -18
c1 -11 -2 -22 -6 -25 -5 -2 -8 7 -8 20 0 30 12 34 14 5z m-87 -45 c0 -5 -5 -3
-10 5 -5 8 -10 20 -10 25 0 6 5 3 10 -5 5 -8 10 -19 10 -25z m149 -37 c8 3 11
0 7 -7 -12 -18 -33 -13 -50 14 -23 35 -20 40 7 12 12 -13 28 -22 36 -19z m813
20 c20 20 25 14 25 -35 1 -27 -1 -40 -4 -30 -2 9 -9 17 -15 17 -6 0 -7 -7 -3
-17 4 -10 7 -31 6 -47 -1 -22 2 -27 14 -22 18 6 19 2 5 -24 -7 -13 -7 -21 0
-25 5 -3 10 -1 10 4 0 6 9 3 20 -6 24 -21 26 -56 5 -73 -8 -7 -12 -16 -9 -21
3 -5 2 -14 -1 -19 -11 -18 -43 8 -50 42 -4 18 -13 36 -19 40 -7 5 -4 8 7 8 10
0 15 5 12 10 -4 6 -2 16 4 23 6 8 6 18 1 27 -8 13 -10 13 -10 -1 0 -9 -7 -16
-15 -16 -19 0 -19 13 -1 20 11 4 14 18 11 48 -5 51 -8 54 -35 39 -18 -10 -21
-9 -18 2 3 7 14 18 27 24 19 10 20 13 6 24 -8 7 -15 18 -15 24 0 6 7 2 15 -8
12 -16 18 -17 27 -8z m62 -23 c3 -8 1 -15 -4 -15 -6 0 -10 7 -10 15 0 8 2 15
4 15 2 0 6 -7 10 -15z m-134 -45 c0 -5 -5 -10 -11 -10 -5 0 -7 5 -4 10 3 6 8
10 11 10 2 0 4 -4 4 -10z m183 -46 c11 -4 23 -1 28 7 14 24 18 5 6 -34 -10
-32 -16 -37 -37 -35 -18 2 -26 10 -28 28 -2 14 -8 31 -14 37 -6 7 -7 21 -3 30
6 16 8 16 17 -4 6 -13 20 -25 31 -29z m-218 -14 c3 -5 -1 -10 -9 -10 -9 0 -16
5 -16 10 0 6 4 10 9 10 6 0 13 -4 16 -10z m-1115 -20 c0 -5 -2 -10 -4 -10 -3
0 -8 5 -11 10 -3 6 -1 10 4 10 6 0 11 -4 11 -10z m460 -39 c0 -12 -39 -25 -47
-17 -4 3 1 6 10 6 10 0 17 5 17 10 0 6 5 10 10 10 6 0 10 -4 10 -9z m-73 -27
c-9 -9 -28 6 -21 18 4 6 10 6 17 -1 6 -6 8 -13 4 -17z m-92 -23 c-3 -6 -11
-11 -17 -11 -6 0 -6 6 2 15 14 17 26 13 15 -4z m165 -50 c0 -5 11 -19 25 -32
13 -13 25 -27 25 -31 0 -9 -71 -33 -91 -30 -9 2 -35 -1 -58 -7 -22 -5 -41 -5
-41 -1 0 5 14 11 30 15 48 10 35 25 -17 20 -27 -3 -43 -3 -36 1 7 3 9 12 6 20
-4 10 0 12 11 8 9 -4 16 -1 16 6 0 9 11 10 35 6 27 -5 38 -3 52 13 19 20 43
27 43 12z m544 -7 c9 -3 13 -10 10 -15 -3 -5 5 -5 19 0 26 10 40 4 49 -20 4
-9 23 -19 42 -23 20 -4 36 -11 36 -16 0 -6 7 -10 15 -10 8 0 15 -5 15 -10 0
-6 -12 -8 -27 -4 l-28 6 24 -20 c14 -11 25 -29 26 -41 2 -25 -10 -28 -23 -4
-5 9 -18 17 -28 18 -11 0 -25 4 -32 9 -6 4 -15 5 -20 2 -4 -2 -23 -1 -42 3
-19 4 -42 4 -50 0 -8 -5 -40 -13 -71 -19 -32 -6 -64 -19 -74 -30 -10 -11 -24
-20 -31 -20 -7 0 -17 -19 -21 -42 -7 -37 -12 -43 -36 -46 -30 -4 -32 3 -17 44
9 24 9 25 -5 14 -12 -10 -15 -10 -15 4 0 9 -5 16 -11 16 -6 0 -8 -9 -4 -22 5
-18 4 -20 -4 -8 -6 8 -11 23 -11 33 0 11 -4 15 -12 11 -7 -4 -8 -3 -4 4 4 7
14 12 22 12 8 0 14 5 14 11 0 5 5 7 10 4 6 -4 9 -1 8 7 -2 8 7 13 24 13 15 -1
26 4 25 9 -1 5 19 16 45 25 38 13 46 20 42 34 -3 9 0 17 6 17 6 0 9 -4 6 -9
-3 -5 1 -11 9 -15 8 -3 15 -1 15 4 0 6 13 10 29 10 17 0 33 5 36 10 3 6 1 10
-4 10 -15 0 -14 23 1 38 14 14 20 14 42 6z m-69 -44 c-3 -5 -11 -10 -16 -10
-6 0 -7 5 -4 10 3 6 11 10 16 10 6 0 7 -4 4 -10z m-390 -10 c-3 -5 -11 -10
-16 -10 -6 0 -7 5 -4 10 3 6 11 10 16 10 6 0 7 -4 4 -10z m277 -32 c-7 -7 -12
-8 -12 -2 0 6 3 14 7 17 3 4 9 5 12 2 2 -3 -1 -11 -7 -17z m-82 -18 c0 -5 -2
-10 -4 -10 -3 0 -8 5 -11 10 -3 6 -1 10 4 10 6 0 11 -4 11 -10z m-577 -14 c4
-10 1 -13 -8 -9 -8 3 -12 9 -9 14 7 12 11 11 17 -5z m514 -2 c-3 -3 -12 -4
-19 -1 -8 3 -5 6 6 6 11 1 17 -2 13 -5z m-592 -44 c-3 -5 -10 -10 -16 -10 -5
0 -9 5 -9 10 0 6 7 10 16 10 8 0 12 -4 9 -10z m580 -8 c-3 -3 -11 0 -18 7 -9
10 -8 11 6 5 10 -3 15 -9 12 -12z m-2 -187 c-3 -9 -8 -14 -10 -11 -3 3 -2 9 2
15 9 16 15 13 8 -4z m605 -27 c-2 -7 2 -12 7 -11 6 1 10 -10 10 -23 0 -13 -3
-24 -7 -24 -5 0 -8 -10 -8 -23 0 -13 -5 -28 -12 -35 -9 -9 -9 -12 0 -12 8 0
12 -15 11 -42 -1 -24 -4 -33 -6 -20 -2 12 -11 22 -18 22 -17 0 -46 -40 -38
-53 3 -5 0 -7 -8 -5 -8 3 -28 -1 -46 -9 -43 -17 -49 -17 -49 7 0 12 4 16 10
10 6 -6 20 -2 38 11 32 23 35 34 12 43 -16 6 -48 -17 -37 -28 4 -3 2 -6 -4 -6
-6 0 -13 7 -17 15 -4 13 -9 13 -25 3 -11 -7 -18 -15 -16 -18 2 -3 -7 -7 -20
-8 -44 -3 -36 25 18 65 29 21 58 44 66 51 7 7 18 11 25 9 10 -3 66 45 66 57 0
3 -10 6 -22 6 -18 0 -20 2 -8 9 8 6 17 8 21 5 4 -2 10 0 14 6 9 14 45 12 43
-2z m-643 -48 c3 -5 1 -10 -4 -10 -6 0 -11 5 -11 10 0 6 2 10 4 10 3 0 8 -4
11 -10z m182 -37 c3 -10 19 -30 36 -44 30 -26 31 -54 1 -42 -18 7 -67 103 -53
103 5 0 12 -8 16 -17z m-189 -18 c-3 -3 -9 2 -12 12 -6 14 -5 15 5 6 7 -7 10
-15 7 -18z m-474 -40 c9 -14 21 -25 26 -25 18 0 90 -35 90 -44 0 -4 6 -4 13 2
9 8 26 8 56 1 45 -10 60 -3 61 29 0 6 8 12 18 12 9 1 34 7 55 14 37 13 37 13
31 -8 -3 -11 -13 -28 -20 -37 -11 -12 -11 -18 -2 -27 7 -7 8 -12 3 -12 -6 0
-3 -5 5 -10 12 -8 13 -13 2 -30 -11 -18 -10 -20 8 -20 15 0 20 7 20 25 0 14 4
25 10 25 5 0 8 -13 7 -30 -2 -26 -6 -30 -29 -30 -18 0 -28 -5 -28 -15 0 -17
-16 -20 -25 -5 -4 6 -11 8 -16 5 -5 -4 -9 1 -9 9 0 9 -5 16 -11 16 -7 0 -9 10
-5 25 6 24 6 24 -61 24 -78 -1 -126 5 -166 20 -36 14 -37 14 -31 -4 4 -8 16
-15 28 -16 11 0 39 -6 61 -13 40 -13 40 -13 13 -20 -18 -5 -38 -3 -59 8 -18 9
-40 16 -51 16 -10 0 -18 5 -18 11 0 5 -3 8 -7 6 -5 -3 -8 18 -8 46 0 29 -4 58
-9 65 -6 8 -2 12 12 12 11 0 27 -11 36 -25z m852 -42 c-5 -6 -85 37 -93 49 -3
6 17 -2 46 -17 28 -16 49 -30 47 -32z m-89 -25 c11 -13 23 -28 26 -34 7 -13
-25 -54 -42 -54 -15 0 -14 -23 2 -39 10 -11 9 -12 -2 -6 -11 6 -13 4 -8 -8 3
-10 2 -17 -3 -17 -6 0 -10 -8 -9 -17 0 -11 3 -13 6 -5 9 23 31 13 31 -15 0
-15 5 -29 11 -31 13 -4 15 -38 2 -46 -5 -3 -11 3 -14 14 -3 11 -10 20 -16 20
-6 0 -8 -6 -5 -14 7 -18 -23 -28 -47 -16 -25 14 -29 96 -4 86 8 -3 15 -1 15 4
0 6 -5 10 -11 10 -6 0 -9 9 -6 20 3 13 0 20 -9 20 -8 0 -14 -7 -14 -15 0 -8
-5 -15 -11 -15 -6 0 -9 6 -6 13 6 17 -1 28 -33 50 -34 24 -12 21 28 -3 43 -27
48 -26 61 13 9 23 14 28 20 18 6 -9 10 -3 14 20 5 36 -8 63 -26 52 -6 -3 -7
-1 -3 5 11 18 31 14 53 -10z m116 -30 c-28 -10 -38 -9 -26 3 6 6 9 18 6 26 -5
12 0 11 16 -3 20 -17 20 -19 4 -26z m-437 -22 c6 -37 6 -38 -15 -27 -14 8 -21
21 -21 40 0 57 24 49 36 -13z m602 0 c15 2 19 1 10 -2 -10 -3 -18 -12 -18 -20
0 -21 -27 -17 -33 5 -5 20 5 41 11 23 1 -5 15 -8 30 -6z m-78 -36 c0 -5 -2
-10 -4 -10 -3 0 -8 5 -11 10 -3 6 -1 10 4 10 6 0 11 -4 11 -10z m-167 -41 c15
-17 27 -35 27 -39 0 -5 12 -13 28 -18 17 -7 21 -11 10 -11 -17 -1 -26 -21 -10
-21 4 0 8 -9 8 -20 0 -11 -4 -20 -8 -20 -4 0 -5 -6 -2 -14 3 -9 -1 -13 -13
-13 -11 1 -17 -4 -15 -13 3 -12 1 -13 -10 -2 -10 10 -10 15 -1 20 8 5 9 13 3
22 -5 8 -6 28 -4 45 5 24 3 27 -5 15 -9 -12 -10 -10 -6 10 5 19 0 32 -19 50
-26 23 -33 40 -18 40 4 0 20 -14 35 -31z m-381 5 c1 -5 10 -16 20 -24 18 -15
18 -15 -1 -27 -16 -10 -22 -9 -33 5 -12 16 -11 16 7 3 19 -14 19 -14 2 5 -15
16 -19 17 -28 4 -9 -14 -4 -103 6 -121 3 -4 0 -11 -6 -15 -6 -3 -15 0 -20 7
-4 7 -12 10 -16 5 -14 -14 28 -36 48 -26 16 9 17 6 14 -36 -2 -25 -6 -48 -9
-51 -9 -10 -37 20 -32 33 6 17 -10 28 -19 14 -5 -8 -11 -7 -21 1 -7 6 -11 16
-7 22 4 6 6 24 5 40 -1 15 1 34 5 40 4 7 8 19 8 27 0 8 4 21 8 28 5 7 5 12 0
11 -40 -7 -46 27 -7 41 14 6 29 8 34 5 5 -3 11 -1 14 4 4 5 -2 12 -11 14 -10
3 -6 4 10 3 15 -1 28 -6 29 -12z m119 -17 c-6 -8 -8 -17 -4 -21 4 -4 1 -11 -7
-16 -13 -8 -13 -10 1 -10 10 0 20 11 23 25 4 14 11 25 17 25 8 0 7 -5 -1 -15
-7 -9 -9 -19 -5 -23 4 -4 10 -1 12 6 4 10 8 8 18 -5 13 -17 14 -16 24 10 13
33 21 36 14 5 -3 -13 -2 -20 2 -16 14 14 35 -14 35 -46 0 -17 -4 -26 -8 -21
-4 6 -16 10 -27 10 -15 0 -19 -7 -20 -30 0 -19 -5 -29 -12 -27 -7 1 -13 -2
-13 -8 0 -5 6 -10 14 -10 8 0 19 -13 25 -30 8 -24 7 -30 -5 -30 -7 0 -13 -6
-11 -12 1 -7 -7 -13 -18 -13 -18 0 -20 6 -18 78 2 55 -1 77 -10 77 -8 0 -6 4
3 10 11 7 12 12 3 21 -12 12 -56 3 -48 -11 3 -4 -2 -10 -10 -14 -8 -3 -15 -2
-15 3 0 4 -11 6 -25 3 -19 -3 -25 0 -25 13 0 11 5 15 15 12 18 -7 30 9 13 17
-10 5 -10 7 0 12 6 3 12 12 12 19 0 8 12 16 28 18 15 2 29 5 31 6 2 0 -2 -5
-8 -12z m-211 -62 c0 -8 -7 -15 -15 -15 -8 0 -15 7 -15 15 0 8 7 15 15 15 8 0
15 -7 15 -15z m222 -35 c-5 -37 -18 -47 -25 -20 -3 11 -1 20 4 20 5 0 9 7 9
15 0 8 4 15 8 15 5 0 7 -14 4 -30z m-262 -23 c0 -17 -1 -17 -16 -2 -9 9 -13
23 -9 32 5 15 7 15 15 3 6 -8 10 -23 10 -33z m176 7 c-3 -8 -3 -27 0 -40 5
-21 9 -23 22 -12 11 9 13 9 9 1 -4 -7 2 -19 15 -29 15 -11 17 -14 6 -11 -13 5
-19 0 -24 -18 -3 -14 -12 -25 -20 -25 -10 0 -14 14 -14 50 0 36 -4 52 -15 56
-8 4 -12 10 -9 15 3 5 1 9 -5 9 -5 0 -12 -6 -14 -12 -3 -8 -6 -5 -6 6 -1 14 4
17 24 14 14 -3 25 -1 25 3 0 5 3 9 6 9 3 0 3 -7 0 -16z m254 -49 c8 -10 9 -23
3 -41 -8 -23 -10 -25 -22 -10 -9 11 -10 16 -2 16 6 0 11 5 11 10 0 6 -7 10
-15 10 -16 0 -20 12 -8 23 10 11 19 8 33 -8z m68 -12 c-4 -22 -22 -20 -26 1
-2 10 3 16 13 16 10 0 15 -7 13 -17z m-28 -143 c0 -11 -4 -20 -9 -20 -5 0 -7
9 -4 20 3 11 7 20 9 20 2 0 4 -9 4 -20z m-71 -27 c0 -25 -1 -25 -8 -8 -5 11
-7 23 -4 28 8 14 13 7 12 -20z m-59 -29 c0 -13 -4 -24 -10 -24 -5 0 -10 6 -10
14 0 8 -5 16 -12 18 -7 3 -9 12 -5 22 6 15 10 16 22 6 8 -7 15 -23 15 -36z
m-89 23 c-1 -4 -1 -14 -1 -22 0 -8 -4 -15 -9 -15 -12 0 -23 29 -15 41 6 11 26
8 25 -4z m-76 -7 c3 -5 1 -10 -4 -10 -6 0 -11 5 -11 10 0 6 2 10 4 10 3 0 8
-4 11 -10z m298 -202 c4 -13 1 -18 -11 -19 -16 -1 -16 -2 1 -6 9 -2 17 -7 17
-10 0 -15 -35 -29 -61 -25 -26 4 -27 6 -13 16 9 7 17 24 17 39 1 15 5 27 10
27 4 0 7 8 7 17 0 15 2 15 13 -2 8 -11 17 -28 20 -37z m-223 1 c0 -5 5 -7 10
-4 6 4 9 3 8 -2 -1 -4 4 -19 11 -31 7 -13 10 -26 7 -29 -3 -3 -10 7 -16 22 -6
15 -16 25 -23 22 -8 -3 -14 3 -14 14 -1 10 2 19 8 19 5 0 9 -5 9 -11z m255
-19 c3 -5 1 -10 -4 -10 -6 0 -11 5 -11 10 0 6 2 10 4 10 3 0 8 -4 11 -10z
m-285 -18 c0 -4 -9 -8 -20 -9 -11 -1 -20 2 -20 8 0 5 9 9 20 9 11 0 20 -4 20
-8z"/>
<path d="M1200 2290 c0 -5 7 -10 16 -10 10 0 14 -6 11 -14 -4 -10 -1 -13 8 -9
17 6 11 19 -16 33 -13 7 -19 7 -19 0z"/>
<path d="M1286 2245 c-3 -8 -1 -15 4 -15 6 0 10 7 10 15 0 8 -2 15 -4 15 -2 0
-6 -7 -10 -15z"/>
<path d="M1243 2228 c-11 -19 -13 -39 -2 -32 5 3 7 9 4 14 -3 5 3 13 12 19 10
6 13 11 6 11 -6 0 -15 -6 -20 -12z"/>
<path d="M1255 2150 c-4 -6 -10 -8 -15 -5 -4 3 -13 -2 -20 -10 -9 -10 -9 -15
-1 -15 6 0 11 6 11 13 0 9 2 9 8 0 6 -9 11 -7 20 7 7 11 10 20 8 20 -3 0 -8
-5 -11 -10z"/>
<path d="M1290 2131 c0 -10 19 -25 25 -20 1 2 -3 10 -11 17 -8 7 -14 8 -14 3z"/>
<path d="M1255 2100 c-3 -5 -1 -10 4 -10 6 0 11 5 11 10 0 6 -2 10 -4 10 -3 0
-8 -4 -11 -10z"/>
<path d="M1430 2092 c0 -13 29 -48 30 -35 0 6 -5 15 -10 18 -6 4 -8 11 -5 16
4 5 1 9 -4 9 -6 0 -11 -4 -11 -8z"/>
<path d="M1471 1933 c7 -10 15 -20 16 -22 2 -2 3 3 3 11 0 9 -7 19 -16 22 -15
6 -15 4 -3 -11z"/>
<path d="M1155 1920 c-3 -5 1 -10 9 -10 9 0 16 5 16 10 0 6 -4 10 -9 10 -6 0
-13 -4 -16 -10z"/>
<path d="M1210 1885 c-7 -9 -8 -15 -2 -15 5 0 12 7 16 15 3 8 4 15 2 15 -2 0
-9 -7 -16 -15z"/>
<path d="M1283 1875 c-9 -25 2 -27 22 -5 17 18 17 20 1 20 -9 0 -19 -7 -23
-15z"/>
<path d="M1587 1884 c-4 -4 -21 -7 -38 -6 -30 1 -30 0 -13 -19 13 -15 14 -19
3 -19 -12 0 -11 -2 1 -10 9 -6 17 -5 22 3 6 9 8 9 8 0 0 -21 14 -15 26 11 11
24 4 53 -9 40z"/>
<path d="M1515 1760 c-3 -5 -1 -10 4 -10 6 0 11 5 11 10 0 6 -2 10 -4 10 -3 0
-8 -4 -11 -10z"/>
<path d="M1291 1706 c-10 -12 -8 -17 7 -25 24 -13 31 -6 25 20 -6 23 -16 24
-32 5z"/>
<path d="M1405 1690 c3 -5 12 -10 20 -10 8 0 17 5 20 10 4 6 -5 10 -20 10 -15
0 -24 -4 -20 -10z"/>
<path d="M1240 1640 c0 -5 7 -10 16 -10 8 0 12 5 9 10 -3 6 -10 10 -16 10 -5
0 -9 -4 -9 -10z"/>
<path d="M1190 1568 c0 -4 4 -8 9 -8 6 0 12 4 15 8 3 5 -1 9 -9 9 -8 0 -15 -4
-15 -9z"/>
<path d="M810 2000 c0 -5 5 -10 11 -10 5 0 7 5 4 10 -3 6 -8 10 -11 10 -2 0
-4 -4 -4 -10z"/>
<path d="M1548 1572 c-10 -4 -14 -12 -10 -18 8 -12 72 -15 72 -3 0 12 -29 19
-35 9 -4 -6 -11 -10 -17 -10 -7 0 -6 6 2 15 14 16 13 17 -12 7z"/>
<path d="M1460 1538 c0 -4 4 -8 9 -8 6 0 12 4 15 8 3 5 -1 9 -9 9 -8 0 -15 -4
-15 -9z"/>
<path d="M1586 1071 c-4 -5 -2 -12 3 -15 5 -4 12 -2 15 3 4 5 2 12 -3 15 -5 4
-12 2 -15 -3z"/>
<path d="M960 1050 c0 -5 5 -10 10 -10 6 0 10 5 10 10 0 6 -4 10 -10 10 -5 0
-10 -4 -10 -10z"/>
<path d="M975 960 c3 -5 8 -10 11 -10 2 0 4 5 4 10 0 6 -5 10 -11 10 -5 0 -7
-4 -4 -10z"/>
<path d="M1030 880 c0 -5 5 -10 10 -10 6 0 10 5 10 10 0 6 -4 10 -10 10 -5 0
-10 -4 -10 -10z"/>
</g>
</svg>
